<svg width="621" height="202" viewBox="0 0 621 202" fill="none" xmlns="http://www.w3.org/2000/svg">
<path d="M41.6 10.81C54.53 10.81 65.2 12.38 73.6 15.51C82 18.64 88.27 23.38 92.4 29.71C96.53 36.04 98.6 44.01 98.6 53.61C98.6 60.14 97.37 65.84 94.9 70.71C92.43 75.58 89.17 79.71 85.1 83.11C81.03 86.51 76.67 89.28 72 91.41L114 153.61H80.4L46.4 98.81H30.2V153.61H0V10.81H41.6ZM39.4 35.61H30.2V74.21H40C50 74.21 57.17 72.54 61.5 69.21C65.83 65.88 68 60.94 68 54.41C68 49.88 66.97 46.24 64.9 43.51C62.83 40.78 59.7 38.78 55.5 37.51C51.3 36.24 45.93 35.61 39.4 35.61Z" fill="#F87004"/>
<path d="M141.02 43.04C151 41.28 159.9 41.68 167.73 44.22C175.56 46.77 182.08 51.3 187.29 57.83C192.5 64.36 196.04 72.87 197.89 83.38L200.39 97.56L131.06 109.78C132.78 118.01 136.39 124.07 141.88 127.98C147.37 131.89 154.26 133.11 162.53 131.65C169.49 130.42 175.67 128.62 181.07 126.25C186.47 123.88 191.94 120.71 197.47 116.76L201.46 139.41C196.67 142.96 191.46 145.88 185.84 148.15C180.22 150.43 173.27 152.3 165 153.75C154.23 155.65 144.36 155.33 135.38 152.78C126.4 150.23 118.83 145.31 112.67 138C106.51 130.69 102.34 120.87 100.16 108.52C97.94 95.91 98.22 85.07 101.02 75.98C103.82 66.89 108.65 59.57 115.53 54.03C122.41 48.49 130.9 44.82 141.02 43.04ZM144.9 63.88C139.25 64.88 134.88 67.54 131.79 71.88C128.7 76.22 127.5 82.32 128.21 90.18L169.38 82.92C168.62 78.59 167.18 74.85 165.07 71.7C162.96 68.55 160.22 66.26 156.85 64.82C153.47 63.39 149.49 63.07 144.9 63.88Z" fill="#F87004"/>
<path d="M244.9 42.49C259.34 39.94 270.96 41.11 279.74 45.99C288.52 50.87 294.05 59.75 296.32 72.62L308.96 144.31L288.48 147.92L280.2 134.35L279.41 134.49C277.06 138.83 274.5 142.53 271.72 145.59C268.94 148.65 265.59 151.11 261.65 152.95C257.71 154.79 252.72 156.25 246.68 157.32C240.38 158.43 234.48 158.22 229 156.68C223.52 155.14 218.88 152.1 215.1 147.55C211.32 143.01 208.75 136.86 207.38 129.11C205.37 117.69 207.88 108.54 214.93 101.68C221.98 94.82 233.46 89.71 249.39 86.36L268 82.47L267.17 77.74C266.17 72.1 263.97 68.22 260.55 66.11C257.13 64.01 252.8 63.42 247.55 64.34C242.3 65.27 237.31 66.93 232.59 69.31C227.86 71.7 223.21 74.45 218.61 77.56L205.44 59.4C210.68 55.36 216.67 51.87 223.39 48.92C230.11 45.98 237.28 43.84 244.9 42.49ZM259.66 102.03C250.25 103.96 243.99 106.82 240.87 110.62C237.75 114.42 236.64 118.88 237.54 124C238.33 128.47 240.2 131.42 243.16 132.86C246.12 134.3 249.7 134.65 253.91 133.91C260.21 132.8 265.2 129.99 268.87 125.48C272.54 120.97 273.78 115.31 272.57 108.48L271.01 99.62L259.66 102.03Z" fill="#F87004"/>
<path d="M349.12 155.61C336.98 155.61 327.08 150.84 319.42 141.31C311.75 131.78 307.92 117.75 307.92 99.21C307.92 80.54 311.79 66.41 319.52 56.81C327.25 47.21 337.39 42.41 349.92 42.41C355.12 42.41 359.72 43.11 363.72 44.51C367.72 45.91 371.15 47.81 374.02 50.21C376.89 52.61 379.32 55.34 381.32 58.41H382.32C381.92 56.28 381.45 53.18 380.92 49.11C380.39 45.04 380.12 40.88 380.12 36.61V1.60999H409.92V153.61H387.12L381.32 139.41H380.12C378.25 142.34 375.89 145.04 373.02 147.51C370.15 149.98 366.79 151.94 362.92 153.41C359.05 154.87 354.45 155.61 349.12 155.61ZM359.52 131.81C367.79 131.81 373.59 129.38 376.92 124.51C380.25 119.64 381.99 112.34 382.12 102.61V99.41C382.12 88.74 380.49 80.61 377.22 75.01C373.95 69.41 367.92 66.61 359.12 66.61C352.58 66.61 347.45 69.44 343.72 75.11C339.99 80.78 338.12 88.94 338.12 99.61C338.12 110.28 339.99 118.31 343.72 123.71C347.45 129.11 352.72 131.81 359.52 131.81Z" fill="#F87004"/>
<path d="M400.39 153.61L432.93 1.60999H448.73L416.19 153.61H400.39Z" fill="#525FE1"/>
<path d="M426.92 201.61C423.85 201.61 420.75 201.38 417.62 200.91C414.49 200.44 411.92 199.88 409.92 199.21V175.61C412.05 176.28 413.99 176.78 415.72 177.11C417.45 177.44 419.26 177.61 421.12 177.61C425.12 177.61 428.62 176.28 431.62 173.61C434.62 170.94 436.72 166.74 437.92 161.01L457.92 66.81H441.92L444.92 52.61L462.72 44.41L464.52 36.21C465.98 29.54 467.89 23.94 470.22 19.41C472.55 14.88 475.39 11.24 478.72 8.50998C482.05 5.77998 485.89 3.77998 490.22 2.50998C494.55 1.23998 499.39 0.609985 504.72 0.609985C509.25 0.609985 513.42 1.03998 517.22 1.90998C521.02 2.77998 524.52 3.93998 527.72 5.40998L519.92 27.21C518.05 26.41 516.09 25.71 514.02 25.11C511.95 24.51 509.59 24.21 506.92 24.21C503.19 24.21 500.19 25.51 497.92 28.11C495.65 30.71 494.12 34.14 493.32 38.41L492.12 44.41H513.52L508.72 66.81H487.32L466.32 165.41C464.99 172.08 462.79 178.14 459.72 183.61C456.65 189.08 452.49 193.44 447.22 196.71C441.95 199.97 435.18 201.61 426.92 201.61Z" fill="#525FE1"/>
<path d="M506.52 201.61C503.05 201.61 500.19 201.44 497.92 201.11C495.65 200.78 493.72 200.34 492.12 199.81V176.41C493.85 176.68 495.62 176.94 497.42 177.21C499.22 177.48 501.25 177.61 503.52 177.61C509.79 177.61 514.92 175.81 518.92 172.21C522.92 168.61 526.39 164.01 529.32 158.41L531.92 153.61L515.92 44.41H544.72L550.12 95.01C550.52 97.94 550.79 101.14 550.92 104.61C551.05 108.08 551.15 111.44 551.22 114.71C551.29 117.98 551.32 120.94 551.32 123.61H552.12C553.05 121.34 553.99 118.88 554.92 116.21C555.85 113.54 556.95 110.58 558.22 107.31C559.49 104.04 560.99 100.61 562.72 97.01L588.12 44.41H620.12L553.72 169.21C549.85 176.54 545.49 182.61 540.62 187.41C535.75 192.21 530.49 195.78 524.82 198.11C519.15 200.44 513.05 201.61 506.52 201.61Z" fill="#525FE1"/>
</svg>
